<svg width="615" height="326" viewBox="0 0 615 326" fill="none" xmlns="http://www.w3.org/2000/svg">
<g clip-path="url(#clip0)">
<path d="M316.552 80.7436L316.536 80.8522L316.492 81.1661L311.913 113.979L285.185 124.079L284.769 123.866L269.896 116.312L262.392 85.1307L261.877 82.9902L262.039 82.9263L295.144 70.1124L316.533 80.731L316.552 80.7436Z" fill="#003049"/>
<path d="M284.769 123.866L269.896 116.312L261.877 82.9902L262.039 82.9263L283.483 92.614L284.769 123.866Z" fill="#003049"/>
<g opacity="0.2">
<path d="M285.146 123.489L273.95 100.54L275.452 94.0663L268.644 85.5184L268.056 86.0366L274.615 94.2717L269.523 116.217L270.268 116.408L273.672 101.738L284.463 123.857L285.146 123.489Z" fill="#003049"/>
<path d="M285.146 123.489L273.95 100.54L275.452 94.0663L268.644 85.5184L268.056 86.0366L274.615 94.2717L269.523 116.217L270.268 116.408L273.672 101.738L284.463 123.857L285.146 123.489Z" fill="url(#paint0_linear)"/>
</g>
<path d="M316.549 81.1465L316.492 81.1661L283.481 93.0175L262.392 85.1307L261.877 82.9902L262.039 82.9263L295.144 70.1124L316.533 80.731L316.536 80.8522L316.549 81.1465Z" fill="#3F3D56"/>
<path d="M284.051 93.6261L277.376 88.1369L278.952 82.0989L298.179 74.9719L311.215 75.8677L316.361 80.5406L316.736 81.7525L284.051 93.6261Z" fill="#003049"/>
<path d="M262.26 82.9928L277.415 82.4913L285.642 79.6192L298.471 74.9739L300.889 71.3617L294.925 70.1971L262.26 82.9928Z" fill="#003049"/>
<path d="M262.26 82.9928L277.415 82.4913L285.642 79.6192L298.471 74.9739L300.889 71.3617L294.925 70.1971L262.26 82.9928Z" fill="url(#paint1_linear)"/>
<path d="M292.49 76.7109L284.57 79.5712L284.819 80.3337L292.739 77.4734L292.49 76.7109Z" fill="#CCCCCC"/>
<path d="M188.763 28.842L184.926 48.2825L202.115 62.0276L210.312 36.7762L188.763 28.842Z" fill="#9F616A"/>
<path d="M202.528 46.7811C211.731 46.8442 219.246 39.0515 219.313 29.3756C219.379 19.6998 211.971 11.8048 202.768 11.7417C193.564 11.6787 186.049 19.4714 185.983 29.1473C185.916 38.8231 193.324 46.7181 202.528 46.7811Z" fill="#9F616A"/>
<path d="M165.631 161.758C165.668 167.411 188.654 230.479 185.347 238.648C180.184 244.12 168.959 273.36 164.195 281.148C163.578 281.143 160.426 290.855 160.426 290.855C160.426 290.855 167.748 303.234 175.807 298.098C186.068 273.221 211.43 259.48 212.1 226.969C213.249 237.249 216.397 303.202 216.397 303.202C216.397 303.202 215.705 303.506 231.239 305.178C233.915 266.93 244.223 201.898 222.424 160.849C215.657 157.558 165.631 161.758 165.631 161.758Z" fill="#2F2E41"/>
<path d="M216.405 301.919C215.673 303.373 210.406 316.803 215.106 318.186C220.526 319.78 225.806 317.634 225.806 317.634C225.806 317.634 235.291 320.823 241.136 316.893C243.871 314.057 243.272 311.458 241.989 309.567C241.337 308.636 240.499 307.866 239.534 307.31C238.569 306.755 237.5 306.427 236.402 306.351C233.451 306.11 232.518 305.528 232.189 304.103C231.71 302.024 216.405 301.919 216.405 301.919Z" fill="#2F2E41"/>
<path d="M165.699 289.812C165.699 289.812 152.403 294.125 155.161 299.282C156.953 302.479 159.584 305.065 162.738 306.73C162.738 306.73 165.423 318.74 173.103 318.792C176.943 318.818 178.268 316.534 178.633 314.242C178.799 313.098 178.725 311.931 178.417 310.82C178.109 309.71 177.573 308.684 176.849 307.814C174.926 305.449 174.658 304.343 175.384 303.091C176.444 301.263 165.699 289.812 165.699 289.812Z" fill="#2F2E41"/>
<path d="M225.491 164.068C225.491 164.068 222.984 169.242 213.122 167.225C203.26 165.215 164.364 166.891 164.364 166.891C164.364 166.891 166.838 120.513 162.092 92.5763C157.345 64.6394 176.896 48.8753 176.896 48.8753L183.114 42.4275C189.292 41.8264 202.19 62.0544 202.19 62.0544C206.475 62.8396 210.348 82.0375 213.64 100.201C213.835 101.239 214.018 102.265 214.202 103.29C215.718 111.759 217.846 121.187 219.101 129.648C219.192 130.248 219.277 130.842 219.357 131.436C220.842 142.422 222.89 153.315 225.491 164.068Z" fill="#E6E6E6"/>
<path d="M183.226 18.219C183.226 18.219 180.16 10.9914 188.283 7.77134C188.283 7.77134 195.219 -3.9738 208.874 3.98154C208.874 3.98154 218.195 7.97627 218.123 18.4581C218.051 28.94 221.154 30.9267 221.154 30.9267C221.154 30.9267 216.548 25.8906 215.329 21.9514C214.109 18.0122 204.423 17.054 200.657 20.9591C196.891 24.8642 187.548 24.145 187.548 24.145L188.072 38.5618C188.072 38.5618 185.015 30.024 183.769 30.0154C182.522 30.0069 181.357 18.2062 183.226 18.219Z" fill="#2F2E41"/>
<path opacity="0.2" d="M219.102 129.648C204.436 121.133 180.712 102.518 173.086 92.483C163.033 79.2646 174.165 69.3461 174.165 69.3461C186.765 61.1117 201.567 89.7609 201.567 89.7609L213.641 100.201C213.836 101.239 214.019 102.265 214.202 103.291C215.718 111.759 217.846 121.187 219.102 129.648Z" fill="black"/>
<path d="M263.121 120.253C263.121 120.253 284.947 129.745 288.621 119.268C292.296 108.791 271.41 108.828 271.41 108.828L263.202 109.993L263.121 120.253Z" fill="#9F616A"/>
<path d="M171.388 65.0535C171.388 65.0535 160.262 74.9779 170.307 88.1918C180.352 101.406 226.739 129.81 226.739 129.81L257.139 121.395L265.714 123.106L267.449 106.17L254.791 107.381L222.73 99.9734L202.374 82.3673C202.374 82.3673 183.985 56.8235 171.388 65.0535Z" fill="#E6E6E6"/>
<path opacity="0.2" d="M210.848 185.799L212.457 233.336L207.877 185.778L210.848 185.799Z" fill="black"/>
<path d="M419.955 153.234L402.363 157.392C401.002 157.714 399.576 157.465 398.388 156.699C397.199 155.932 396.342 154.709 395.999 153.288C395.799 152.464 395.78 151.603 395.942 150.77C396.105 149.937 396.444 149.153 396.935 148.478C397.427 147.802 398.057 147.252 398.779 146.868C399.502 146.485 400.297 146.279 401.106 146.264L418.073 145.966L419.955 153.234Z" fill="#FFB9B9"/>
<path d="M418.072 155.931L414.256 143.602L437.697 135.366L431.885 77.8645C443.044 80.0769 448.299 89.3509 447.719 101.276L450.476 140.505L418.072 155.931Z" fill="#3F3D56"/>
<path d="M434.851 65.2161L473.055 65.4779L473.192 45.5044C473.243 40.1102 471.268 34.9141 467.696 31.0439C465.951 29.1373 463.861 27.618 461.547 26.5758C459.234 25.5336 456.746 24.9897 454.228 24.9762C449.201 24.9515 444.366 27.0078 440.767 30.7004C437.168 34.393 435.096 39.4253 434.997 44.7092C434.993 44.8921 434.989 45.0658 434.988 45.2427L434.851 65.2161Z" fill="#2F2E41"/>
<path d="M487.422 300.303L475.219 298.746L461.315 194.883L430.371 298.86L417.154 299.19L433.048 171.116L431.046 141.845L468.569 129.684C494.952 149.325 493.933 218.054 487.422 300.303Z" fill="#2F2E41"/>
<path d="M450.618 61.3648C458.579 61.4193 465.079 54.6789 465.136 46.3096C465.194 37.9403 458.786 31.1114 450.825 31.0569C442.864 31.0023 436.364 37.7428 436.307 46.1121C436.249 54.4814 442.657 61.3102 450.618 61.3648Z" fill="#FFB9B9"/>
<path d="M464.949 73.6709L440.478 80.2387C444.65 71.9471 446.02 64.1896 443.84 57.1087L461.078 54.2801C459.925 61.0287 461.313 67.9823 464.949 73.6709Z" fill="#FFB9B9"/>
<path d="M472.735 135.395C458.973 144.46 442.942 154.873 431.228 144.583L425.818 115.92C421.391 111.718 423.455 98.8575 429.604 80.5491C429.994 79.3869 430.631 78.3333 431.467 77.4682C432.302 76.603 433.313 75.9489 434.425 75.5556L443.736 72.2627C447.827 75.9301 454.59 73.8058 462.578 69.0241L471.77 71.6128L475.558 103.211C469.716 112.275 470.642 124.405 472.735 135.395Z" fill="#3F3D56"/>
<path d="M461.238 147.624L443.646 151.781C442.285 152.103 440.859 151.854 439.67 151.088C438.482 150.322 437.624 149.098 437.281 147.677C437.082 146.853 437.062 145.993 437.225 145.16C437.387 144.326 437.726 143.543 438.218 142.867C438.709 142.191 439.339 141.641 440.062 141.258C440.784 140.874 441.579 140.668 442.388 140.654L459.355 140.355L461.238 147.624Z" fill="#FFB9B9"/>
<path d="M485.163 320.126C483.105 321.096 481.429 314.985 479.687 316.761C474.813 321.727 463.211 320.527 463.211 320.527C462.822 320.393 462.464 320.177 462.157 319.892C461.849 319.608 461.601 319.261 461.425 318.872C461.249 318.483 461.151 318.061 461.135 317.631C461.119 317.201 461.186 316.772 461.333 316.37C461.508 315.888 461.792 315.459 462.16 315.119C462.528 314.778 462.969 314.537 463.445 314.415L468.601 313.098L476.785 298.213L485.6 297.101L485.819 297.485C487.502 300.382 488.578 303.623 488.974 306.992C489.371 310.361 489.079 313.78 488.119 317.022C487.37 319.484 486.372 319.556 485.163 320.126Z" fill="#2F2E41"/>
<path d="M427.104 319.729C425.046 320.699 423.37 314.588 421.628 316.363C416.754 321.33 405.152 320.129 405.152 320.129C404.763 319.995 404.404 319.779 404.097 319.494C403.79 319.21 403.542 318.863 403.366 318.474C403.19 318.085 403.092 317.663 403.076 317.233C403.06 316.803 403.127 316.374 403.274 315.972C403.449 315.491 403.733 315.062 404.101 314.721C404.469 314.381 404.91 314.139 405.386 314.018L410.542 312.7L418.726 297.815L427.541 296.704L427.76 297.088C429.443 299.984 430.519 303.225 430.915 306.594C431.312 309.963 431.02 313.382 430.06 316.625C429.311 319.087 428.313 319.159 427.104 319.729Z" fill="#2F2E41"/>
<path d="M467.707 33.6869L463.993 45.805L432.609 45.0035C432.745 40.7557 434.141 36.6579 436.599 33.2825C439.058 29.907 442.458 27.4226 446.324 26.1761C450.19 24.9296 454.328 24.9835 458.162 26.33C461.996 27.6766 465.333 30.2487 467.707 33.6869L467.707 33.6869Z" fill="#2F2E41"/>
<path d="M459.355 150.32L455.538 137.992L478.98 129.755L470.537 70.9906C475.933 72.0605 480.777 75.1494 484.171 79.6857C487.566 84.222 489.282 89.8987 489.002 95.6652L491.758 134.894L459.355 150.32Z" fill="#3F3D56"/>
<path d="M403.73 116.773L379.371 122.105L374.574 96.9143L383.816 84.0549L392.065 82.4616L401.151 92.2845L403.73 116.773Z" fill="#CCCCCC"/>
<path d="M392.477 117.792L377.83 117.692L375.905 107.316L373.796 95.9445L377.098 91.0196L383.364 93.124L390.094 103.071L391.73 113.171L391.844 113.89L392.477 117.792Z" fill="#E6E6E6"/>
<path d="M417.101 111.915L400.219 113.861L403.381 91.3377L410.225 84.923L416.099 86.4756L419.957 95.9877L417.101 111.915Z" fill="#CCCCCC"/>
<path d="M419.413 98.5933L417.782 107.659L412.472 138.55L392.813 145.018L392.139 144.626L381.61 138.476L375.875 107.303L375.905 107.316L391.587 114.076L391.73 113.171L391.83 112.516L393.091 104.466L398.492 98.45L416.438 94.0378L419.413 98.5933Z" fill="#E6E6E6"/>
<path d="M407 97.5486C409.311 97.5644 411.198 95.6078 411.215 93.1783C411.231 90.7489 409.371 88.7665 407.06 88.7507C404.749 88.7349 402.862 90.6915 402.846 93.121C402.829 95.5504 404.689 97.5327 407 97.5486Z" fill="#E6E6E6"/>
<path d="M396.727 95.3495L387.169 97.0711L387.213 97.3421L396.771 95.6205L396.727 95.3495Z" fill="white"/>
<path d="M392.139 144.626L381.61 138.476L375.875 107.303L375.905 107.316L373.796 95.9445L377.098 91.0196L383.364 93.124L390.094 103.071L391.73 113.171L391.83 112.516L391.844 113.89L391.883 117.788L392.139 144.626Z" fill="#F2F2F2"/>
<path d="M381.739 138.516L381.486 138.443L386.841 117.924L380.927 109.608L381.137 109.443L387.127 117.866L381.739 138.516Z" fill="#CCCCCC"/>
<path d="M384.762 126.801L384.526 126.919L392.695 145.076L392.931 144.958L384.762 126.801Z" fill="#CCCCCC"/>
<path opacity="0.2" d="M418.335 105.779L417.313 111.475L417.264 111.481L412.685 138.114L393.026 144.578L392.907 144.636L392.83 144.463L381.824 138.04L381.698 138.003L381.768 137.734L376.088 106.863L376.118 106.875L375.489 103.486L375.982 102.751L377.505 100.48L383.767 102.585L390.499 112.529L390.594 113.118L391.279 117.346L391.554 119.044L392.135 122.632L392.737 118.786L392.953 117.401L393.497 113.924L398.9 107.912L401.288 107.325L402.95 106.916L405.237 106.354C404.532 105.897 403.972 105.23 403.628 104.438C403.285 103.645 403.173 102.763 403.306 101.903C403.44 101.043 403.813 100.245 404.379 99.6078C404.945 98.9711 405.678 98.5252 406.485 98.3267C407.292 98.1282 408.137 98.1859 408.912 98.4927C409.687 98.7994 410.359 99.3414 410.84 100.05C411.322 100.758 411.593 101.601 411.618 102.472C411.644 103.343 411.423 104.202 410.983 104.941L416.845 103.499L418.272 105.685L418.335 105.779Z" fill="black"/>
<path d="M392.873 128.63L378.228 128.529L374.193 106.781L377.496 101.854L383.758 103.959L390.49 113.903L392.873 128.63Z" fill="#E6E6E6"/>
<path d="M412.869 149.388L393.21 155.852L382.009 149.314L376.272 118.137L391.984 124.912L393.488 115.299L398.89 109.287L416.836 104.874L419.812 109.43L418.181 118.493L412.869 149.388Z" fill="#E6E6E6"/>
<path d="M407.397 108.383C409.708 108.399 411.594 106.442 411.611 104.013C411.628 101.583 409.768 99.6011 407.457 99.5852C405.146 99.5694 403.259 101.526 403.242 103.956C403.226 106.385 405.086 108.367 407.397 108.383Z" fill="#E6E6E6"/>
<path d="M392.547 155.249L382.018 149.098L376.284 117.925L376.314 117.938L374.205 106.567L377.507 101.642L383.773 103.746L390.503 113.694L392.139 123.793L392.238 123.138L392.253 124.512L392.291 128.411L392.547 155.249Z" fill="#F2F2F2"/>
<path d="M382.135 149.35L381.883 149.277L387.238 128.758L381.324 120.442L381.533 120.277L387.524 128.701L382.135 149.35Z" fill="#CCCCCC"/>
<path d="M385.159 137.636L384.923 137.753L393.092 155.91L393.328 155.793L385.159 137.636Z" fill="#CCCCCC"/>
<path d="M555.819 294.19L531.46 299.522L526.663 274.331L535.905 261.472L544.154 259.879L553.241 269.702L555.819 294.19Z" fill="#CCCCCC"/>
<path d="M544.567 295.21L529.92 295.109L527.995 284.733L525.886 273.362L529.188 268.437L535.454 270.541L542.184 280.488L543.82 290.588L543.934 291.307L544.567 295.21Z" fill="#E6E6E6"/>
<path d="M569.191 289.332L552.309 291.279L555.471 268.755L562.314 262.341L568.188 263.893L572.046 273.405L569.191 289.332Z" fill="#CCCCCC"/>
<path d="M571.503 276.01L569.872 285.076L564.562 315.967L544.903 322.435L544.228 322.043L533.699 315.893L527.965 284.72L527.994 284.733L543.677 291.493L543.82 290.588L543.919 289.933L545.181 281.883L550.582 275.867L568.527 271.455L571.503 276.01Z" fill="#E6E6E6"/>
<path d="M559.089 274.966C561.4 274.982 563.287 273.025 563.304 270.596C563.321 268.166 561.461 266.184 559.15 266.168C556.839 266.152 554.952 268.109 554.935 270.538C554.919 272.968 556.778 274.95 559.089 274.966Z" fill="#E6E6E6"/>
<path d="M548.817 272.767L539.259 274.489L539.303 274.759L548.861 273.038L548.817 272.767Z" fill="white"/>
<path d="M544.228 322.043L533.7 315.893L527.965 284.72L527.995 284.733L525.886 273.362L529.188 268.437L535.454 270.541L542.184 280.488L543.82 290.588L543.92 289.933L543.934 291.307L543.973 295.206L544.228 322.043Z" fill="#F2F2F2"/>
<path d="M533.828 315.933L533.575 315.861L538.93 295.341L533.016 287.025L533.226 286.861L539.216 295.284L533.828 315.933Z" fill="#CCCCCC"/>
<path d="M536.852 304.219L536.616 304.336L544.785 322.493L545.021 322.376L536.852 304.219Z" fill="#CCCCCC"/>
<path d="M603.701 320.439L587.658 320.33L585.504 287.832L606.3 287.974L603.701 320.439Z" fill="#E6E6E6"/>
<path d="M606.508 301.094L585.117 300.947L585.083 305.945L606.473 306.091L606.508 301.094Z" fill="#F2F2F2"/>
<path d="M612.077 290.346L608.664 289.263L608.629 287.947L593.463 283.136L592.739 284.212L589.327 283.13L587.157 286.357L612.183 294.295L612.077 290.346Z" fill="#CCCCCC"/>
<path d="M109.025 276.052L109.009 276.161L108.964 276.475L104.386 309.288L77.658 319.388L77.2417 319.175L62.3682 311.621L54.8643 280.439L54.3502 278.299L54.5116 278.235L87.617 265.421L109.005 276.04L109.025 276.052Z" fill="#F77F00"/>
<path d="M77.2417 319.175L62.3682 311.621L54.3501 278.299L54.5116 278.235L75.9561 287.923L77.2417 319.175Z" fill="#F77F00"/>
<path opacity="0.2" d="M77.6182 318.797L66.4225 295.849L67.9251 289.375L61.1164 280.827L60.5282 281.345L67.0876 289.581L61.9953 311.526L62.7409 311.716L66.1446 297.047L76.9353 319.166L77.6182 318.797Z" fill="black"/>
<path d="M109.022 276.456L108.964 276.475L75.9533 288.326L54.8643 280.439L54.3502 278.299L54.5116 278.235L87.617 265.421L109.005 276.04L109.009 276.161L109.022 276.456Z" fill="#003049"/>
<path d="M76.5239 288.935L69.8488 283.445L71.4244 277.407L90.6518 270.281L103.687 271.177L108.834 275.849L109.209 277.062L76.5239 288.935Z" fill="#F77F00"/>
<path d="M54.7331 278.301L69.8876 277.8L78.115 274.928L90.9436 270.283L93.3618 266.67L87.398 265.506L54.7331 278.301Z" fill="#F77F00"/>
<path d="M84.9625 272.02L77.043 274.88L77.2917 275.642L85.2113 272.782L84.9625 272.02Z" fill="#CCCCCC"/>
<path d="M41.403 317.334L25.3602 317.224L23.2061 284.726L44.0023 284.869L41.403 317.334Z" fill="#F77F00"/>
<path d="M44.2092 297.988L22.8188 297.842L22.7846 302.839L44.175 302.985L44.2092 297.988Z" fill="#E6E6E6"/>
<path d="M45.2032 283.003L41.6382 282.978L41.2504 281.726L25.4061 281.618L25.0012 282.864L21.4361 282.84L20.2221 286.58L46.3659 286.759L45.2032 283.003Z" fill="#003049"/>
<path d="M500.312 320.095L140.183 317.628L140.175 318.877L500.303 321.345L500.312 320.095Z" fill="#3F3D56"/>
</g>
<ellipse cx="301.5" cy="322" rx="301.5" ry="4" fill="#F77F00"/>
<ellipse cx="301.5" cy="322" rx="301.5" ry="4" fill="url(#paint2_linear)"/>
<defs>
<linearGradient id="paint0_linear" x1="276.732" y1="85.5738" x2="276.47" y2="123.802" gradientUnits="userSpaceOnUse">
<stop stop-color="white"/>
<stop offset="1" stop-color="white" stop-opacity="0"/>
</linearGradient>
<linearGradient id="paint1_linear" x1="281.623" y1="70.1059" x2="281.534" y2="83.1248" gradientUnits="userSpaceOnUse">
<stop stop-color="white"/>
<stop offset="1" stop-color="white" stop-opacity="0"/>
</linearGradient>
<linearGradient id="paint2_linear" x1="301.5" y1="318" x2="301.5" y2="326" gradientUnits="userSpaceOnUse">
<stop stop-color="white"/>
<stop offset="1" stop-color="white" stop-opacity="0"/>
</linearGradient>
<clipPath id="clip0">
<rect width="592" height="319" fill="white" transform="translate(22.1855) rotate(0.392545)"/>
</clipPath>
</defs>
</svg>
