<svg width="467" height="240" viewBox="0 0 467 240" fill="none" xmlns="http://www.w3.org/2000/svg">
<path d="M259.321 170.831L152.552 194.625C148.93 195.428 145.088 194.955 141.869 193.31C138.649 191.665 136.315 188.982 135.379 185.85L103.089 77.3345C102.161 74.2002 102.707 70.8753 104.608 68.0891C106.509 65.3029 109.609 63.2831 113.229 62.4727L212.56 40.3364L237.984 50.1861L269.461 155.969C270.389 159.103 269.843 162.428 267.942 165.214C266.041 168.001 262.941 170.02 259.321 170.831Z" fill="#F2F2F2"/>
<path d="M114.24 65.8749C111.663 66.452 109.455 67.8904 108.101 69.8745C106.747 71.8586 106.358 74.2264 107.019 76.4584L139.309 184.973C139.976 187.204 141.638 189.115 143.931 190.286C146.224 191.458 148.96 191.794 151.539 191.222L258.308 167.428C260.885 166.851 263.093 165.413 264.447 163.429C265.801 161.445 266.19 159.077 265.529 156.845L234.539 52.7013L212.196 44.0452L114.24 65.8749Z" fill="#F77F00"/>
<path d="M237.712 50.7458L221.188 54.4282C219.981 54.697 218.701 54.5401 217.628 53.992C216.556 53.4439 215.779 52.5495 215.468 51.5056L212.325 40.9438C212.311 40.8976 212.313 40.8489 212.33 40.8034C212.346 40.7579 212.378 40.7174 212.42 40.6866C212.462 40.6558 212.513 40.6358 212.568 40.629C212.622 40.6223 212.678 40.6289 212.729 40.6483L237.757 50.2676C237.813 50.289 237.86 50.3249 237.891 50.3702C237.922 50.4156 237.936 50.4682 237.931 50.5208C237.926 50.5734 237.902 50.6233 237.863 50.6636C237.823 50.7039 237.771 50.7326 237.712 50.7458Z" fill="#F2F2F2"/>
<path d="M229.02 143.415L180.409 154.248C180.11 154.315 179.8 154.33 179.494 154.293C179.189 154.255 178.895 154.166 178.629 154.03C178.364 153.895 178.132 153.715 177.947 153.502C177.761 153.288 177.626 153.046 177.549 152.787C177.472 152.529 177.455 152.26 177.498 151.995C177.542 151.731 177.644 151.477 177.801 151.247C177.958 151.017 178.166 150.816 178.412 150.656C178.659 150.496 178.939 150.379 179.238 150.312L227.848 139.479C228.147 139.413 228.458 139.398 228.763 139.435C229.069 139.473 229.362 139.562 229.628 139.697C229.893 139.833 230.126 140.013 230.311 140.226C230.496 140.439 230.631 140.682 230.708 140.941C230.785 141.199 230.802 141.468 230.759 141.732C230.716 141.997 230.613 142.251 230.456 142.481C230.299 142.71 230.092 142.911 229.845 143.072C229.599 143.232 229.318 143.349 229.02 143.415Z" fill="#CCCCCC"/>
<path d="M240.377 147.967L182.386 160.891C181.783 161.025 181.142 160.947 180.606 160.672C180.07 160.398 179.681 159.951 179.526 159.429C179.371 158.907 179.461 158.353 179.778 157.889C180.095 157.425 180.611 157.089 181.214 156.954L239.206 144.031C239.809 143.897 240.448 143.976 240.984 144.25C241.52 144.524 241.908 144.971 242.064 145.493C242.219 146.014 242.128 146.568 241.812 147.032C241.496 147.496 240.98 147.832 240.377 147.967Z" fill="#CCCCCC"/>
<path d="M160.568 167.296C165.152 167.296 168.868 164.08 168.868 160.112C168.868 156.145 165.152 152.929 160.568 152.929C155.984 152.929 152.268 156.145 152.268 160.112C152.268 164.08 155.984 167.296 160.568 167.296Z" fill="#003049"/>
<path d="M223.851 124.617L159.291 138.999C157.425 139.413 155.446 139.169 153.788 138.321C152.129 137.474 150.927 136.091 150.445 134.478L136.916 88.9934C136.438 87.3787 136.719 85.6659 137.699 84.2306C138.678 82.7954 140.275 81.755 142.14 81.3377L206.7 66.9557C208.565 66.542 210.545 66.7857 212.203 67.6333C213.861 68.4809 215.064 69.8632 215.546 71.4769L229.075 116.961C229.553 118.576 229.272 120.289 228.292 121.724C227.313 123.159 225.716 124.2 223.851 124.617Z" fill="#003049"/>
<path d="M223.851 124.617L159.291 138.999C157.425 139.413 155.446 139.169 153.788 138.321C152.129 137.474 150.927 136.091 150.445 134.478L136.916 88.9934C136.438 87.3787 136.719 85.6659 137.699 84.2306C138.678 82.7954 140.275 81.755 142.14 81.3377L206.7 66.9557C208.565 66.542 210.545 66.7857 212.203 67.6333C213.861 68.4809 215.064 69.8632 215.546 71.4769L229.075 116.961C229.553 118.576 229.272 120.289 228.292 121.724C227.313 123.159 225.716 124.2 223.851 124.617ZM142.353 82.054C140.708 82.4222 139.298 83.3402 138.434 84.6066C137.57 85.873 137.321 87.3843 137.743 88.809L151.273 134.293C151.698 135.717 152.759 136.937 154.222 137.685C155.686 138.433 157.432 138.648 159.078 138.283L223.638 123.901C225.283 123.532 226.692 122.614 227.557 121.348C228.421 120.082 228.669 118.57 228.247 117.146L214.718 71.6613C214.293 70.2374 213.232 69.0178 211.769 68.2699C210.305 67.522 208.559 67.307 206.913 67.672L142.353 82.054Z" fill="#E6E6E6"/>
<path d="M203.424 82.2492L170.841 89.5076C170.557 89.5764 170.252 89.5491 169.99 89.4311C169.727 89.3131 169.526 89.1133 169.428 88.872C169.382 88.746 169.366 88.6132 169.381 88.4817C169.396 88.3502 169.443 88.2228 169.517 88.1072C169.591 87.9917 169.691 87.8904 169.812 87.8096C169.933 87.7287 170.072 87.6701 170.219 87.6371L203.386 80.2485C204.726 80.836 204.373 82.0376 203.423 82.2493L203.424 82.2492Z" fill="#F2F2F2"/>
<path d="M204.895 87.1952L172.313 94.4536C172.028 94.5224 171.724 94.4951 171.461 94.3771C171.199 94.2591 170.998 94.0593 170.899 93.8181C170.853 93.692 170.838 93.5592 170.853 93.4277C170.868 93.2962 170.914 93.1688 170.988 93.0533C171.062 92.9377 171.163 92.8364 171.284 92.7556C171.405 92.6748 171.543 92.6161 171.691 92.5831L204.858 85.1946C206.198 85.7821 205.845 86.9837 204.895 87.1953L204.895 87.1952Z" fill="#F2F2F2"/>
<path d="M166.107 98.8387L156.163 101.054C155.838 101.126 155.494 101.084 155.205 100.936C154.916 100.788 154.707 100.548 154.623 100.267L151.603 90.1118C151.519 89.8307 151.568 89.5326 151.739 89.2827C151.909 89.0329 152.187 88.8518 152.512 88.7792L162.456 86.564C162.781 86.4921 163.125 86.5345 163.414 86.682C163.702 86.8296 163.912 87.0701 163.996 87.351L167.016 97.5061C167.099 97.7872 167.05 98.0853 166.88 98.3352C166.71 98.585 166.431 98.7661 166.107 98.8387V98.8387Z" fill="#E6E6E6"/>
<path d="M207.812 97.3433L158.086 108.421C157.801 108.49 157.496 108.462 157.234 108.344C156.971 108.226 156.77 108.027 156.672 107.785C156.626 107.659 156.61 107.526 156.625 107.395C156.641 107.264 156.687 107.136 156.761 107.021C156.835 106.905 156.935 106.804 157.056 106.723C157.177 106.642 157.316 106.583 157.464 106.55L207.775 95.3425C209.115 95.93 208.762 97.1316 207.812 97.3433L207.812 97.3433Z" fill="#F2F2F2"/>
<path d="M209.284 102.291L159.557 113.368C159.272 113.437 158.968 113.41 158.706 113.292C158.443 113.174 158.242 112.974 158.143 112.733C158.097 112.607 158.082 112.474 158.097 112.343C158.112 112.211 158.158 112.084 158.232 111.968C158.307 111.853 158.407 111.751 158.528 111.67C158.649 111.59 158.787 111.531 158.935 111.498L209.247 100.29C210.587 100.878 210.234 102.079 209.284 102.291V102.291Z" fill="#F2F2F2"/>
<path d="M210.755 107.235L161.028 118.312C160.743 118.381 160.439 118.354 160.176 118.236C159.914 118.118 159.713 117.918 159.614 117.677C159.568 117.551 159.552 117.418 159.568 117.287C159.583 117.155 159.629 117.028 159.703 116.912C159.777 116.797 159.878 116.695 159.999 116.614C160.119 116.534 160.258 116.475 160.406 116.442L210.717 105.234C212.057 105.822 211.705 107.023 210.755 107.235Z" fill="#F2F2F2"/>
<path d="M212.226 112.182L162.5 123.26C162.215 123.328 161.91 123.301 161.648 123.183C161.385 123.065 161.185 122.865 161.086 122.624C161.04 122.498 161.024 122.365 161.039 122.234C161.055 122.102 161.101 121.975 161.175 121.859C161.249 121.744 161.349 121.642 161.47 121.561C161.591 121.481 161.73 121.422 161.878 121.389L212.189 110.181C213.529 110.769 213.176 111.97 212.226 112.182L212.226 112.182Z" fill="#F2F2F2"/>
<path d="M213.697 117.126L163.97 128.204C163.685 128.273 163.381 128.246 163.119 128.128C162.856 128.01 162.655 127.81 162.557 127.569C162.511 127.443 162.495 127.31 162.51 127.178C162.525 127.047 162.571 126.919 162.646 126.804C162.72 126.688 162.82 126.587 162.941 126.506C163.062 126.425 163.2 126.367 163.348 126.334L213.66 115.126C215 115.713 214.647 116.915 213.697 117.126Z" fill="#F2F2F2"/>
<path d="M161.181 162.631C161 162.671 160.809 162.66 160.636 162.598L160.626 162.594L158.364 161.765C158.259 161.726 158.164 161.67 158.084 161.6C158.004 161.53 157.941 161.446 157.899 161.355C157.856 161.264 157.834 161.166 157.835 161.067C157.837 160.969 157.86 160.871 157.905 160.78C157.949 160.69 158.014 160.607 158.095 160.538C158.177 160.469 158.273 160.415 158.379 160.378C158.484 160.341 158.597 160.323 158.711 160.324C158.825 160.325 158.938 160.345 159.043 160.384L160.508 160.923L162.428 157.015C162.472 156.924 162.537 156.842 162.618 156.773C162.7 156.704 162.796 156.649 162.901 156.612C163.007 156.576 163.12 156.557 163.233 156.558C163.347 156.559 163.46 156.579 163.564 156.618L163.565 156.618L163.553 156.644L163.565 156.618C163.777 156.696 163.943 156.843 164.029 157.028C164.115 157.212 164.113 157.419 164.023 157.602L161.765 162.197C161.712 162.303 161.632 162.397 161.531 162.472C161.43 162.547 161.31 162.601 161.181 162.63L161.181 162.631Z" fill="white"/>
<path d="M300.273 212.183H190.02C186.282 212.179 182.697 210.892 180.054 208.604C177.41 206.317 175.923 203.215 175.918 199.979V87.9237C175.923 84.6882 177.41 81.5861 180.054 79.2982C182.697 77.0103 186.282 75.7234 190.02 75.7197H292.592L314.375 90.7451V199.979C314.371 203.215 312.884 206.317 310.24 208.604C307.596 210.892 304.012 212.179 300.273 212.183Z" fill="#E6E6E6"/>
<path d="M190.02 79.2332C187.358 79.2357 184.805 80.1522 182.923 81.7815C181.04 83.4107 179.981 85.6198 179.978 87.9239V199.979C179.981 202.283 181.04 204.492 182.923 206.122C184.805 207.751 187.358 208.667 190.02 208.67H300.273C302.935 208.667 305.488 207.751 307.37 206.122C309.253 204.492 310.312 202.283 310.315 199.979V92.4378L291.172 79.2332H190.02Z" fill="#F77F00"/>
<path d="M278.828 111.816H228.632C228.009 111.816 227.412 111.602 226.972 111.221C226.531 110.839 226.284 110.323 226.284 109.784C226.284 109.245 226.531 108.728 226.972 108.346C227.412 107.965 228.009 107.751 228.632 107.751H278.828C279.451 107.751 280.049 107.965 280.489 108.346C280.929 108.728 281.177 109.245 281.177 109.784C281.177 110.323 280.929 110.839 280.489 111.221C280.049 111.602 279.451 111.816 278.828 111.816Z" fill="#003049"/>
<path d="M288.515 118.675H228.632C228.01 118.674 227.413 118.46 226.973 118.078C226.534 117.697 226.287 117.181 226.287 116.642C226.287 116.104 226.534 115.587 226.973 115.206C227.413 114.825 228.01 114.611 228.632 114.61H288.515C288.824 114.61 289.13 114.662 289.415 114.764C289.7 114.866 289.959 115.016 290.178 115.204C290.396 115.393 290.569 115.617 290.688 115.864C290.806 116.111 290.867 116.375 290.867 116.642C290.867 116.91 290.806 117.174 290.688 117.421C290.569 117.668 290.396 117.892 290.178 118.08C289.959 118.269 289.7 118.419 289.415 118.521C289.13 118.623 288.824 118.675 288.515 118.675Z" fill="#003049"/>
<path d="M278.83 138.489H228.635C228.012 138.489 227.415 138.703 226.974 139.084C226.534 139.465 226.287 139.982 226.287 140.521C226.287 141.06 226.534 141.577 226.974 141.958C227.415 142.339 228.012 142.553 228.635 142.553H278.83C279.452 142.553 280.05 142.339 280.49 141.958C280.93 141.577 281.178 141.06 281.178 140.521C281.178 139.982 280.93 139.465 280.49 139.084C280.05 138.703 279.452 138.489 278.83 138.489Z" fill="#CCCCCC"/>
<path d="M288.516 145.349H228.634C228.011 145.349 227.414 145.563 226.973 145.944C226.533 146.325 226.286 146.842 226.286 147.381C226.286 147.92 226.533 148.437 226.973 148.818C227.414 149.199 228.011 149.413 228.634 149.413H288.516C289.139 149.413 289.736 149.199 290.177 148.818C290.617 148.437 290.864 147.92 290.864 147.381C290.864 146.842 290.617 146.325 290.177 145.944C289.736 145.563 289.139 145.349 288.516 145.349Z" fill="#CCCCCC"/>
<path d="M278.828 173.293H228.632C228.009 173.293 227.412 173.078 226.972 172.697C226.531 172.316 226.284 171.799 226.284 171.26C226.284 170.721 226.531 170.204 226.972 169.823C227.412 169.442 228.009 169.228 228.632 169.228H278.828C279.451 169.228 280.049 169.442 280.489 169.823C280.929 170.204 281.177 170.721 281.177 171.26C281.177 171.799 280.929 172.316 280.489 172.697C280.049 173.078 279.451 173.293 278.828 173.293Z" fill="#CCCCCC"/>
<path d="M288.515 180.152H228.632C228.01 180.151 227.413 179.937 226.973 179.556C226.534 179.174 226.287 178.658 226.287 178.119C226.287 177.581 226.534 177.064 226.973 176.683C227.413 176.302 228.01 176.088 228.632 176.087H288.515C288.824 176.087 289.13 176.139 289.415 176.241C289.7 176.343 289.959 176.493 290.178 176.681C290.396 176.87 290.569 177.094 290.688 177.341C290.806 177.588 290.867 177.852 290.867 178.119C290.867 178.387 290.806 178.651 290.688 178.898C290.569 179.145 290.396 179.369 290.178 179.557C289.959 179.746 289.7 179.896 289.415 179.998C289.13 180.1 288.824 180.152 288.515 180.152Z" fill="#CCCCCC"/>
<path d="M207.729 120.396C212.313 120.396 216.03 117.18 216.03 113.213C216.03 109.246 212.313 106.03 207.729 106.03C203.145 106.03 199.429 109.246 199.429 113.213C199.429 117.18 203.145 120.396 207.729 120.396Z" fill="#003049"/>
<path d="M206.907 115.953C206.72 115.953 206.539 115.901 206.389 115.804L206.38 115.798L204.429 114.507C204.339 114.447 204.263 114.372 204.205 114.287C204.148 114.201 204.111 114.107 204.096 114.009C204.081 113.912 204.088 113.812 204.118 113.717C204.147 113.622 204.198 113.532 204.267 113.454C204.337 113.376 204.423 113.31 204.522 113.261C204.621 113.211 204.73 113.179 204.843 113.167C204.956 113.154 205.071 113.16 205.181 113.186C205.291 113.212 205.394 113.256 205.484 113.316L206.748 114.154L209.733 110.784C209.803 110.705 209.889 110.64 209.987 110.591C210.086 110.541 210.195 110.509 210.307 110.496C210.42 110.484 210.535 110.49 210.645 110.515C210.755 110.541 210.858 110.585 210.948 110.645L210.948 110.645L210.93 110.667L210.949 110.645C211.131 110.766 211.25 110.945 211.28 111.142C211.31 111.339 211.249 111.539 211.109 111.696L207.597 115.66C207.516 115.751 207.412 115.825 207.292 115.876C207.173 115.926 207.041 115.952 206.908 115.952L206.907 115.953Z" fill="white"/>
<path d="M216.882 143.951C216.883 144.894 216.668 145.828 216.251 146.7C215.834 147.572 215.223 148.364 214.453 149.031C213.682 149.698 212.767 150.228 211.76 150.589C210.753 150.95 209.673 151.136 208.583 151.136C208.512 151.137 208.441 151.135 208.37 151.129C206.738 151.093 205.154 150.641 203.817 149.829C202.481 149.018 201.45 147.884 200.855 146.569C200.259 145.253 200.125 143.815 200.469 142.434C200.814 141.053 201.621 139.79 202.79 138.804C203.959 137.818 205.439 137.153 207.043 136.89C208.647 136.628 210.305 136.782 211.809 137.331C213.313 137.88 214.597 138.801 215.499 139.979C216.402 141.156 216.883 142.538 216.882 143.951Z" fill="#CCCCCC"/>
<path d="M207.729 181.873C212.313 181.873 216.03 178.657 216.03 174.69C216.03 170.723 212.313 167.507 207.729 167.507C203.145 167.507 199.429 170.723 199.429 174.69C199.429 178.657 203.145 181.873 207.729 181.873Z" fill="#CCCCCC"/>
<path d="M313.951 91.2286H296.888C295.642 91.2286 294.447 90.8004 293.567 90.0381C292.686 89.2759 292.191 88.242 292.191 87.164V76.2577C292.191 76.2099 292.206 76.1632 292.236 76.1227C292.265 76.0823 292.307 76.0498 292.357 76.029C292.406 76.0082 292.462 76 292.517 76.0052C292.571 76.0104 292.623 76.0289 292.667 76.0586L314.133 90.7755C314.181 90.8082 314.216 90.853 314.233 90.9037C314.25 90.9543 314.248 91.0083 314.228 91.0581C314.208 91.1079 314.17 91.1511 314.121 91.1817C314.071 91.2122 314.012 91.2286 313.951 91.2286Z" fill="#CCCCCC"/>
<path d="M216.883 143.951C216.883 144.894 216.669 145.828 216.252 146.7C215.835 147.572 215.224 148.364 214.453 149.031C213.683 149.698 212.768 150.228 211.76 150.589C210.753 150.95 209.674 151.136 208.584 151.136C208.512 151.138 208.441 151.135 208.37 151.129C207.298 148.814 206.884 146.31 207.165 143.829C207.445 141.347 208.411 138.96 209.981 136.869C211.912 137.155 213.664 138.023 214.926 139.319C216.189 140.615 216.882 142.255 216.883 143.951Z" fill="#003049"/>
<path d="M226.284 140.523C226.285 139.983 226.533 139.467 226.973 139.085C227.414 138.704 228.011 138.489 228.634 138.489H241.142C241.873 139.774 242.392 141.142 242.685 142.553H228.634C228.011 142.553 227.414 142.339 226.974 141.958C226.533 141.578 226.285 141.061 226.284 140.523Z" fill="#003049"/>
<path d="M242.976 145.349C242.977 146.721 242.767 148.088 242.352 149.413H228.635C228.012 149.413 227.415 149.199 226.974 148.818C226.534 148.437 226.287 147.92 226.287 147.381C226.287 146.842 226.534 146.325 226.974 145.944C227.415 145.563 228.012 145.349 228.635 145.349H242.976Z" fill="#003049"/>
<path d="M351.118 137.159C350.332 138.072 349.224 138.633 348.036 138.718C346.849 138.802 345.68 138.404 344.787 137.61L298.748 96.7054C298.306 96.3124 297.945 95.8341 297.685 95.2979C297.425 94.7616 297.272 94.178 297.234 93.5802C297.197 92.9824 297.275 92.3822 297.465 91.8139C297.655 91.2455 297.954 90.7202 298.343 90.2678C298.732 89.8155 299.204 89.445 299.733 89.1774C300.262 88.9099 300.836 88.7507 301.424 88.7088C302.012 88.6668 302.602 88.7431 303.16 88.9331C303.717 89.1231 304.232 89.4232 304.674 89.8163L350.712 130.721C351.606 131.515 352.15 132.639 352.227 133.846C352.303 135.054 351.904 136.245 351.118 137.159Z" fill="#EA5B01"/>
<path d="M351.118 137.159C350.332 138.072 349.224 138.633 348.036 138.718C346.849 138.802 345.68 138.404 344.787 137.61L298.748 96.7054C298.306 96.3124 297.945 95.8341 297.685 95.2979C297.425 94.7616 297.272 94.178 297.234 93.5802C297.197 92.9824 297.275 92.3822 297.465 91.8139C297.655 91.2455 297.954 90.7202 298.343 90.2678C298.732 89.8155 299.204 89.445 299.733 89.1774C300.262 88.9099 300.836 88.7507 301.424 88.7088C302.012 88.6668 302.602 88.7431 303.16 88.9331C303.717 89.1231 304.232 89.4232 304.674 89.8163L350.712 130.721C351.606 131.515 352.15 132.639 352.227 133.846C352.303 135.054 351.904 136.245 351.118 137.159Z" fill="url(#paint0_linear)"/>
<path d="M304.573 90.0307C299.885 95.4809 293.721 99.4044 286.862 101.305C280.003 103.206 272.756 102.998 266.037 100.709C259.319 98.4191 253.431 94.1504 249.118 88.4424C244.805 82.7344 242.26 75.8434 241.807 68.6408C241.353 61.4383 243.01 54.2476 246.568 47.9782C250.126 41.7088 255.426 36.6422 261.797 33.4192C268.168 30.1961 275.324 28.9613 282.36 29.871C289.397 30.7806 295.997 33.7938 301.327 38.5295C308.465 44.886 312.815 53.8781 313.424 63.5331C314.032 73.1881 310.849 82.7175 304.573 90.0307ZM257.412 48.1281C253.896 52.2158 251.644 57.2649 250.941 62.637C250.239 68.009 251.117 73.4627 253.464 78.3085C255.812 83.1542 259.524 87.1743 264.131 89.8603C268.737 92.5464 274.032 93.7779 279.345 93.399C284.658 93.02 289.75 91.0478 293.979 87.7316C298.207 84.4154 301.381 79.9042 303.1 74.7684C304.819 69.6327 305.005 64.1031 303.634 58.8789C302.264 53.6547 299.399 48.9705 295.401 45.4187C290.037 40.6638 283.025 38.2786 275.903 38.7865C268.781 39.2945 262.131 42.654 257.412 48.1281Z" fill="#F77F00"/>
<path d="M304.573 90.0307C299.885 95.4809 293.721 99.4044 286.862 101.305C280.003 103.206 272.756 102.998 266.037 100.709C259.319 98.4191 253.431 94.1504 249.118 88.4424C244.805 82.7344 242.26 75.8434 241.807 68.6408C241.353 61.4383 243.01 54.2476 246.568 47.9782C250.126 41.7088 255.426 36.6422 261.797 33.4192C268.168 30.1961 275.324 28.9613 282.36 29.871C289.397 30.7806 295.997 33.7938 301.327 38.5295C308.465 44.886 312.815 53.8781 313.424 63.5331C314.032 73.1881 310.849 82.7175 304.573 90.0307ZM257.412 48.1281C253.896 52.2158 251.644 57.2649 250.941 62.637C250.239 68.009 251.117 73.4627 253.464 78.3085C255.812 83.1542 259.524 87.1743 264.131 89.8603C268.737 92.5464 274.032 93.7779 279.345 93.399C284.658 93.02 289.75 91.0478 293.979 87.7316C298.207 84.4154 301.381 79.9042 303.1 74.7684C304.819 69.6327 305.005 64.1031 303.634 58.8789C302.264 53.6547 299.399 48.9705 295.401 45.4187C290.037 40.6638 283.025 38.2786 275.903 38.7865C268.781 39.2945 262.131 42.654 257.412 48.1281Z" fill="url(#paint1_linear)"/>
<path d="M310.5 152C381.5 176 429 141 436 126.5" stroke="white" stroke-width="4" stroke-dasharray="11 11"/>
<path d="M44 165C84 124.5 103.5 124.5 118.5 124.5" stroke="#FFFCFC" stroke-width="4" stroke-dasharray="11 11"/>
<path d="M28 110C12.5333 110 0 122.063 0 136.95C0 142.768 1.95556 149.441 5.24444 153.89L28 187L50.7556 153.89C54.0444 149.441 56 142.853 56 136.95C56 122.063 43.4667 110 28 110ZM28 147.217C22.1333 147.217 17.3333 142.597 17.3333 136.95C17.3333 131.303 22.1333 126.683 28 126.683C33.8667 126.683 38.6667 131.303 38.6667 136.95C38.6667 142.597 33.8667 147.217 28 147.217Z" fill="#F77F00"/>
<path d="M28 110C12.5333 110 0 122.063 0 136.95C0 142.768 1.95556 149.441 5.24444 153.89L28 187L50.7556 153.89C54.0444 149.441 56 142.853 56 136.95C56 122.063 43.4667 110 28 110ZM28 147.217C22.1333 147.217 17.3333 142.597 17.3333 136.95C17.3333 131.303 22.1333 126.683 28 126.683C33.8667 126.683 38.6667 131.303 38.6667 136.95C38.6667 142.597 33.8667 147.217 28 147.217Z" fill="url(#paint2_linear)" fill-opacity="0.73"/>
<path d="M439 48.0001C423.533 48.0001 411 60.0634 411 74.9501C411 80.7678 412.956 87.4412 416.244 91.8901L439 125L461.756 91.8901C465.044 87.4412 467 80.8534 467 74.9501C467 60.0634 454.467 48.0001 439 48.0001ZM439 85.2167C433.133 85.2167 428.333 80.5967 428.333 74.9501C428.333 69.3034 433.133 64.6834 439 64.6834C444.867 64.6834 449.667 69.3034 449.667 74.9501C449.667 80.5967 444.867 85.2167 439 85.2167Z" fill="#F77F00"/>
<path d="M439 48.0001C423.533 48.0001 411 60.0634 411 74.9501C411 80.7678 412.956 87.4412 416.244 91.8901L439 125L461.756 91.8901C465.044 87.4412 467 80.8534 467 74.9501C467 60.0634 454.467 48.0001 439 48.0001ZM439 85.2167C433.133 85.2167 428.333 80.5967 428.333 74.9501C428.333 69.3034 433.133 64.6834 439 64.6834C444.867 64.6834 449.667 69.3034 449.667 74.9501C449.667 80.5967 444.867 85.2167 439 85.2167Z" fill="url(#paint3_linear)" fill-opacity="0.73"/>
<defs>
<linearGradient id="paint0_linear" x1="328.265" y1="93.2038" x2="321.196" y2="134.223" gradientUnits="userSpaceOnUse">
<stop stop-color="#003049"/>
<stop offset="1" stop-color="white" stop-opacity="0"/>
</linearGradient>
<linearGradient id="paint1_linear" x1="283.819" y1="30.0907" x2="271.413" y2="102.08" gradientUnits="userSpaceOnUse">
<stop stop-color="white"/>
<stop offset="1" stop-color="white" stop-opacity="0"/>
</linearGradient>
<linearGradient id="paint2_linear" x1="28" y1="110" x2="28" y2="187" gradientUnits="userSpaceOnUse">
<stop stop-color="white"/>
<stop offset="1" stop-color="white" stop-opacity="0"/>
</linearGradient>
<linearGradient id="paint3_linear" x1="439" y1="48.0001" x2="439" y2="125" gradientUnits="userSpaceOnUse">
<stop stop-color="white"/>
<stop offset="1" stop-color="white" stop-opacity="0"/>
</linearGradient>
</defs>
</svg>
